<svg width="920" height="236" viewBox="0 0 920 236" fill="none" xmlns="http://www.w3.org/2000/svg">
<g clip-path="url(#clip0_1335_21)">
<path d="M114.821 116.221H65.2374V82.0788L90.0602 58.8596L114.821 82.0788V116.221Z" fill="#FBBC3D"/>
<path d="M296.688 154.608C291.448 160.073 285.123 164.38 278.119 167.25C271.115 170.12 263.589 171.491 256.024 171.273C225.588 171.273 199.892 152.923 199.892 115.597C199.892 78.2714 225.276 59.9831 256.024 59.9831C263.115 59.7128 270.181 60.9593 276.753 63.6394C283.324 66.3195 289.249 70.3715 294.131 75.525L277.728 92.8146C271.957 87.5521 264.454 84.5974 256.647 84.5131C252.567 84.4121 248.511 85.1576 244.733 86.7027C240.955 88.2477 237.538 90.5588 234.696 93.4905C231.855 96.4222 229.651 99.911 228.223 103.737C226.794 107.563 226.173 111.644 226.399 115.722C226.125 119.729 226.696 123.749 228.075 127.522C229.454 131.294 231.611 134.733 234.404 137.618C237.198 140.502 240.566 142.766 244.291 144.262C248.015 145.759 252.013 146.456 256.024 146.306C260.247 146.453 264.458 145.756 268.409 144.255C272.361 142.755 275.974 140.482 279.038 137.568L296.688 154.608Z" fill="#E9521E"/>
<path d="M334.108 18.85V77.2727C337.869 72.1556 342.826 68.0399 348.546 65.2867C354.265 62.5334 360.573 61.2267 366.914 61.4811C396.727 61.4811 409.949 81.7043 409.949 112.601V168.028H384.003V112.975C384.003 93.7509 373.962 85.699 360.116 85.699C356.5 85.8165 352.944 86.6616 349.661 88.1841C346.379 89.7066 343.436 91.8753 341.009 94.5607C338.581 97.2461 336.719 100.393 335.534 103.814C334.348 107.236 333.864 110.861 334.108 114.473V168.152H308.163V18.85H334.108Z" fill="#E9521E"/>
<path d="M454.044 124.772C455.728 137.755 467.016 147.18 485.228 147.18C495.462 147.314 505.418 143.846 513.356 137.381L529.946 153.796C517.655 165.094 501.476 171.199 484.791 170.836C448.618 170.836 427.1 148.428 427.1 114.661C427.1 82.6405 448.805 59.671 482.858 59.671C518.034 59.671 539.925 81.3922 535.934 124.647L454.044 124.772ZM511.111 103.238C509.427 89.6313 498.637 82.7654 483.856 82.7654C477.353 82.27 470.878 84.0366 465.525 87.7668C460.173 91.497 456.272 96.962 454.48 103.238H511.111Z" fill="#E9521E"/>
<path d="M646.139 154.608C640.92 160.049 634.625 164.342 627.656 167.212C620.686 170.081 613.195 171.464 605.661 171.273C575.226 171.273 549.842 152.922 549.842 115.597C549.842 78.2713 575.226 59.9831 605.661 59.9831C612.721 59.7396 619.752 60.9992 626.289 63.6784C632.826 66.3577 638.72 70.3956 643.582 75.525L627.179 92.8146C621.408 87.5521 613.905 84.5974 606.098 84.5131C602.018 84.4121 597.962 85.1576 594.184 86.7026C590.406 88.2477 586.989 90.5588 584.147 93.4905C581.306 96.4222 579.101 99.9109 577.673 103.737C576.245 107.563 575.624 111.644 575.849 115.722C575.555 119.756 576.117 123.806 577.499 127.607C578.881 131.408 581.052 134.872 583.868 137.773C586.684 140.674 590.082 142.945 593.838 144.438C597.595 145.93 601.624 146.609 605.661 146.431C609.885 146.578 614.096 145.88 618.047 144.38C621.999 142.88 625.612 140.606 628.675 137.693L646.139 154.608Z" fill="#E9521E"/>
<path d="M682.937 19.3494V105.485L718.3 63.0415H749.485V64.5395L706.637 112.476L755.41 166.217V168.09H724.225L683.124 120.59V168.09H657.179V19.3494H682.937Z" fill="#E9521E"/>
<path d="M795.636 33.3309C795.636 53.5541 764.951 53.5541 764.951 33.3309C764.951 13.1076 795.636 13.1076 795.636 33.3309ZM767.446 62.5422V168.028H793.391V62.5422H767.446Z" fill="#E9521E"/>
<path d="M893.993 168.028V112.975C893.993 96.9966 885.261 84.8252 868.671 84.8252C864.954 84.9263 861.296 85.7773 857.915 87.327C854.535 88.8768 851.502 91.0935 848.997 93.8443C846.493 96.5952 844.57 99.8236 843.342 103.336C842.114 106.849 841.608 110.573 841.852 114.286V167.965H816.032V63.0415H839.295L840.979 77.3351C845.332 72.4684 850.642 68.5538 856.577 65.8365C862.512 63.1191 868.944 61.6576 875.469 61.5435C900.417 61.5435 920.001 80.2687 920.001 113.163V168.34L893.993 168.028Z" fill="#E9521E"/>
<path d="M134.779 123.836C127.64 133.325 117.623 140.247 106.227 143.564C94.8302 146.881 82.6668 146.416 71.5562 142.238C60.4457 138.061 50.9856 130.395 44.5912 120.388C38.1967 110.381 35.2119 98.5714 36.0831 86.7254C36.9544 74.8793 41.635 63.6341 49.4245 54.6721C57.2141 45.7101 67.6938 39.5133 79.2958 37.0087C90.8978 34.5041 102.998 35.8265 113.787 40.778C124.575 45.7295 133.471 54.0438 139.145 64.4771L165.028 38.5739C153.876 22.9399 138.061 11.2443 119.853 5.16622C101.645 -0.911886 81.9814 -1.05992 63.6844 4.7434C45.3874 10.5467 29.3983 22.0029 18.0126 37.4672C6.62694 52.9315 0.43023 71.6087 0.312134 90.8172C0.312134 140.751 91.1209 234.003 91.1209 234.003C92.9919 235.875 133.906 192.62 160.163 148.928L134.779 123.836Z" fill="#E9521E"/>
<path d="M668.281 186.69V234.939H659.923V186.69H668.281Z" fill="#FBBC3D"/>
<path d="M698.155 191.309C698.018 192.529 697.437 193.656 696.522 194.474C695.607 195.293 694.424 195.745 693.197 195.745C691.97 195.745 690.786 195.293 689.871 194.474C688.957 193.656 688.375 192.529 688.239 191.309C688.375 190.089 688.957 188.962 689.871 188.144C690.786 187.326 691.97 186.873 693.197 186.873C694.424 186.873 695.607 187.326 696.522 188.144C697.437 188.962 698.018 190.089 698.155 191.309ZM688.987 200.797V234.939H697.407V200.797H688.987Z" fill="#FBBC3D"/>
<path d="M730.025 191.309V200.984H739.38V208.224H730.025V222.955C729.941 223.574 729.995 224.203 730.183 224.799C730.37 225.394 730.687 225.941 731.11 226.4C731.533 226.859 732.052 227.219 732.629 227.454C733.207 227.689 733.83 227.794 734.453 227.761C735.866 227.712 737.251 227.35 738.507 226.7L740.814 233.94C738.619 234.855 736.269 235.342 733.892 235.376C732.195 235.629 730.463 235.48 728.835 234.942C727.206 234.404 725.726 233.492 724.513 232.278C723.3 231.064 722.389 229.583 721.851 227.953C721.314 226.323 721.165 224.59 721.418 222.892V208.224H715.181V200.984H721.418V192.183L730.025 191.309Z" fill="#FBBC3D"/>
<path d="M793.017 217.961C793.042 221.467 792.027 224.902 790.101 227.83C788.175 230.759 785.425 233.05 782.198 234.415C778.971 235.779 775.412 236.155 771.971 235.496C768.531 234.836 765.363 233.17 762.868 230.708C760.374 228.247 758.665 225.1 757.957 221.666C757.249 218.233 757.575 214.666 758.893 211.418C760.211 208.169 762.461 205.385 765.36 203.417C768.259 201.448 771.676 200.384 775.18 200.36C777.524 200.274 779.861 200.669 782.047 201.52C784.234 202.371 786.223 203.66 787.894 205.308C789.564 206.957 790.88 208.929 791.761 211.105C792.642 213.281 793.07 215.614 793.017 217.961V217.961ZM766.011 217.961C766.011 220.444 766.997 222.826 768.751 224.582C770.506 226.338 772.885 227.324 775.367 227.324C777.848 227.324 780.227 226.338 781.982 224.582C783.736 222.826 784.722 220.444 784.722 217.961C784.781 216.691 784.588 215.421 784.156 214.224C783.723 213.028 783.06 211.929 782.202 210.99C781.345 210.05 780.311 209.29 779.159 208.751C778.008 208.212 776.761 207.906 775.491 207.85C774.187 207.828 772.892 208.08 771.69 208.589C770.489 209.098 769.407 209.853 768.514 210.805C767.621 211.757 766.937 212.886 766.506 214.118C766.075 215.351 765.907 216.66 766.011 217.961Z" fill="#FBBC3D"/>
<path d="M819.96 200.921L820.584 204.854C821.542 203.213 822.95 201.882 824.642 201.019C826.334 200.156 828.237 199.797 830.127 199.985C833.356 199.956 836.484 201.111 838.921 203.231L835.116 210.596C834.289 209.809 833.307 209.203 832.234 208.817C831.16 208.43 830.018 208.271 828.879 208.349C827.724 208.25 826.562 208.409 825.475 208.813C824.388 209.216 823.404 209.856 822.593 210.685C821.783 211.514 821.165 212.513 820.786 213.609C820.406 214.705 820.273 215.872 820.397 217.025V234.939H811.977V200.921H819.96Z" fill="#FBBC3D"/>
<path d="M882.392 200.921H890.5V234.939H882.517L882.142 229.946C880.999 231.853 879.381 233.43 877.446 234.524C875.511 235.618 873.325 236.191 871.103 236.187C866.339 236.187 861.771 234.293 858.402 230.922C855.033 227.551 853.141 222.979 853.141 218.211C853.141 213.443 855.033 208.871 858.402 205.5C861.771 202.129 866.339 200.235 871.103 200.235C873.236 200.154 875.353 200.623 877.253 201.595C879.153 202.568 880.772 204.012 881.955 205.79L882.392 200.921ZM861.997 217.899C861.91 219.256 862.107 220.616 862.576 221.892C863.045 223.168 863.776 224.332 864.722 225.308C865.668 226.284 866.808 227.051 868.068 227.559C869.328 228.068 870.681 228.307 872.039 228.26C874.638 228.058 877.065 226.882 878.835 224.967C880.606 223.052 881.589 220.539 881.589 217.93C881.589 215.321 880.606 212.808 878.835 210.893C877.065 208.979 874.638 207.802 872.039 207.6C870.684 207.545 869.333 207.775 868.072 208.276C866.812 208.778 865.672 209.539 864.725 210.51C863.778 211.481 863.046 212.641 862.576 213.914C862.106 215.187 861.909 216.545 861.997 217.899V217.899Z" fill="#FBBC3D"/>
<path d="M919.252 186.69V234.939H910.895V186.69H919.252Z" fill="#FBBC3D"/>
</g>
<defs>
<clipPath id="clip0_1335_21">
<rect width="920" height="236" fill="white"/>
</clipPath>
</defs>
</svg>
